<mxfile host="app.diagrams.net" modified="2021-04-08T07:50:08.901Z" agent="5.0 (Macintosh; Intel Mac OS X 10_13_6) AppleWebKit/537.36 (KHTML, like Gecko) Chrome/89.0.4389.114 Safari/537.36" etag="3zxAudVa7NAix9MDtC9t" version="14.5.8" type="github">
  <diagram name="Page-1" id="2c0d36ab-eaac-3732-788b-9136903baeff">
    <mxGraphModel dx="815" dy="454" grid="1" gridSize="10" guides="1" tooltips="1" connect="1" arrows="1" fold="1" page="1" pageScale="1.5" pageWidth="1169" pageHeight="827" background="#ffffff" math="0" shadow="0">
      <root>
        <mxCell id="0" />
        <mxCell id="1" parent="0" />
        <mxCell id="122" value="" style="fillColor=#10739E;strokeColor=none;opacity=30;" parent="1" vertex="1">
          <mxGeometry x="97" y="330" width="2373" height="95.5" as="geometry" />
        </mxCell>
        <mxCell id="Ey4R-V_PaF4X1ZqoevEX-137" value="" style="edgeStyle=elbowEdgeStyle;rounded=0;orthogonalLoop=1;jettySize=auto;elbow=vertical;html=1;" edge="1" parent="1" source="2" target="Ey4R-V_PaF4X1ZqoevEX-136">
          <mxGeometry relative="1" as="geometry" />
        </mxCell>
        <mxCell id="Ey4R-V_PaF4X1ZqoevEX-160" style="edgeStyle=elbowEdgeStyle;rounded=0;orthogonalLoop=1;jettySize=auto;elbow=vertical;html=1;" edge="1" parent="1" source="4">
          <mxGeometry relative="1" as="geometry">
            <mxPoint x="1345" y="520" as="targetPoint" />
          </mxGeometry>
        </mxCell>
        <mxCell id="Ey4R-V_PaF4X1ZqoevEX-161" style="edgeStyle=elbowEdgeStyle;rounded=0;orthogonalLoop=1;jettySize=auto;elbow=vertical;html=1;" edge="1" parent="1" source="4" target="Ey4R-V_PaF4X1ZqoevEX-154">
          <mxGeometry relative="1" as="geometry" />
        </mxCell>
        <mxCell id="4" value="" style="rounded=1;fillColor=#23445D;gradientColor=none;strokeColor=none;fontColor=#FFFFFF;fontStyle=1;fontFamily=Tahoma;fontSize=14" parent="1" vertex="1">
          <mxGeometry x="1361.9999999999998" y="335.5" width="190" height="80" as="geometry" />
        </mxCell>
        <mxCell id="9" value="" style="edgeStyle=elbowEdgeStyle;elbow=vertical;strokeWidth=2;rounded=0" parent="1" source="2" target="4" edge="1">
          <mxGeometry x="337" y="215.5" width="100" height="100" as="geometry">
            <mxPoint x="337" y="315.5" as="sourcePoint" />
            <mxPoint x="437" y="215.5" as="targetPoint" />
          </mxGeometry>
        </mxCell>
        <mxCell id="Ey4R-V_PaF4X1ZqoevEX-167" style="edgeStyle=elbowEdgeStyle;rounded=0;orthogonalLoop=1;jettySize=auto;elbow=vertical;html=1;entryX=0.5;entryY=0;entryDx=0;entryDy=0;" edge="1" parent="1" source="10" target="Ey4R-V_PaF4X1ZqoevEX-166">
          <mxGeometry relative="1" as="geometry" />
        </mxCell>
        <mxCell id="10" value="" style="rounded=1;fillColor=#23445D;gradientColor=none;strokeColor=none;fontColor=#FFFFFF;fontStyle=1;fontFamily=Tahoma;fontSize=14" parent="1" vertex="1">
          <mxGeometry x="947" y="337.75" width="190" height="80" as="geometry" />
        </mxCell>
        <mxCell id="Ey4R-V_PaF4X1ZqoevEX-173" style="edgeStyle=elbowEdgeStyle;rounded=0;orthogonalLoop=1;jettySize=auto;html=1;exitX=0.5;exitY=1;exitDx=0;exitDy=0;" edge="1" parent="1" source="12" target="Ey4R-V_PaF4X1ZqoevEX-168">
          <mxGeometry relative="1" as="geometry">
            <Array as="points">
              <mxPoint x="790" y="575" />
              <mxPoint x="800" y="560" />
            </Array>
          </mxGeometry>
        </mxCell>
        <mxCell id="Ey4R-V_PaF4X1ZqoevEX-176" style="edgeStyle=elbowEdgeStyle;rounded=0;orthogonalLoop=1;jettySize=auto;html=1;exitX=0.5;exitY=1;exitDx=0;exitDy=0;entryX=1;entryY=0.5;entryDx=0;entryDy=0;" edge="1" parent="1" source="12" target="Ey4R-V_PaF4X1ZqoevEX-169">
          <mxGeometry relative="1" as="geometry">
            <Array as="points">
              <mxPoint x="800" y="610" />
            </Array>
          </mxGeometry>
        </mxCell>
        <mxCell id="Ey4R-V_PaF4X1ZqoevEX-178" style="edgeStyle=elbowEdgeStyle;rounded=0;orthogonalLoop=1;jettySize=auto;html=1;exitX=0.5;exitY=1;exitDx=0;exitDy=0;entryX=1;entryY=0.5;entryDx=0;entryDy=0;" edge="1" parent="1" source="12" target="Ey4R-V_PaF4X1ZqoevEX-170">
          <mxGeometry relative="1" as="geometry">
            <Array as="points">
              <mxPoint x="800" y="630" />
            </Array>
          </mxGeometry>
        </mxCell>
        <mxCell id="Ey4R-V_PaF4X1ZqoevEX-179" style="edgeStyle=elbowEdgeStyle;rounded=0;orthogonalLoop=1;jettySize=auto;html=1;exitX=0.5;exitY=1;exitDx=0;exitDy=0;entryX=1;entryY=0.5;entryDx=0;entryDy=0;" edge="1" parent="1" source="12" target="Ey4R-V_PaF4X1ZqoevEX-171">
          <mxGeometry relative="1" as="geometry">
            <Array as="points">
              <mxPoint x="800" y="550" />
            </Array>
          </mxGeometry>
        </mxCell>
        <mxCell id="Ey4R-V_PaF4X1ZqoevEX-182" style="edgeStyle=elbowEdgeStyle;rounded=0;orthogonalLoop=1;jettySize=auto;elbow=vertical;html=1;exitX=0.5;exitY=1;exitDx=0;exitDy=0;" edge="1" parent="1" source="12" target="Ey4R-V_PaF4X1ZqoevEX-181">
          <mxGeometry relative="1" as="geometry" />
        </mxCell>
        <mxCell id="Ey4R-V_PaF4X1ZqoevEX-201" style="edgeStyle=elbowEdgeStyle;rounded=0;orthogonalLoop=1;jettySize=auto;html=1;exitX=0.5;exitY=1;exitDx=0;exitDy=0;entryX=1;entryY=0.5;entryDx=0;entryDy=0;" edge="1" parent="1" source="12" target="Ey4R-V_PaF4X1ZqoevEX-197">
          <mxGeometry relative="1" as="geometry">
            <Array as="points">
              <mxPoint x="800" y="560" />
            </Array>
          </mxGeometry>
        </mxCell>
        <mxCell id="Ey4R-V_PaF4X1ZqoevEX-294" style="edgeStyle=elbowEdgeStyle;rounded=0;orthogonalLoop=1;jettySize=auto;elbow=vertical;html=1;exitX=0.5;exitY=1;exitDx=0;exitDy=0;fontFamily=Tahoma;fontSize=11;fontColor=#FFFFFF;entryX=1;entryY=0.5;entryDx=0;entryDy=0;" edge="1" parent="1" source="12" target="Ey4R-V_PaF4X1ZqoevEX-288">
          <mxGeometry relative="1" as="geometry">
            <Array as="points">
              <mxPoint x="800" y="530" />
            </Array>
          </mxGeometry>
        </mxCell>
        <mxCell id="12" value="" style="rounded=1;fillColor=#23445D;gradientColor=none;strokeColor=none;fontColor=#FFFFFF;fontStyle=1;fontFamily=Tahoma;fontSize=14" parent="1" vertex="1">
          <mxGeometry x="561.9999999999999" y="335.5" width="190" height="80" as="geometry" />
        </mxCell>
        <mxCell id="Ey4R-V_PaF4X1ZqoevEX-153" style="edgeStyle=elbowEdgeStyle;shape=link;rounded=0;orthogonalLoop=1;jettySize=auto;html=1;exitX=1;exitY=0.5;exitDx=0;exitDy=0;entryX=0;entryY=0.5;entryDx=0;entryDy=0;width=23;" edge="1" parent="1" source="Ey4R-V_PaF4X1ZqoevEX-268" target="Ey4R-V_PaF4X1ZqoevEX-136">
          <mxGeometry relative="1" as="geometry" />
        </mxCell>
        <mxCell id="13" value="/apps" style="rounded=1;fillColor=#23445D;gradientColor=none;strokeColor=none;fontColor=#FFFFFF;fontStyle=1;fontFamily=Tahoma;fontSize=14" parent="1" vertex="1">
          <mxGeometry x="107" y="335.5" width="190" height="80" as="geometry" />
        </mxCell>
        <mxCell id="59" value="" style="edgeStyle=elbowEdgeStyle;elbow=vertical;strokeWidth=2;rounded=0" parent="1" source="2" target="12" edge="1">
          <mxGeometry x="347" y="225.5" width="100" height="100" as="geometry">
            <mxPoint x="861.9999999999999" y="275.5" as="sourcePoint" />
            <mxPoint x="1466.9999999999998" y="345.5" as="targetPoint" />
          </mxGeometry>
        </mxCell>
        <mxCell id="61" value="" style="edgeStyle=elbowEdgeStyle;elbow=vertical;strokeWidth=2;rounded=0" parent="1" source="2" target="13" edge="1">
          <mxGeometry x="-23" y="135.5" width="100" height="100" as="geometry">
            <mxPoint x="-23" y="235.5" as="sourcePoint" />
            <mxPoint x="77" y="135.5" as="targetPoint" />
          </mxGeometry>
        </mxCell>
        <mxCell id="Ey4R-V_PaF4X1ZqoevEX-136" value="/blog" style="rounded=1;fillColor=#23445D;gradientColor=none;strokeColor=none;fontColor=#FFFFFF;fontStyle=1;fontFamily=Tahoma;fontSize=14" vertex="1" parent="1">
          <mxGeometry x="2260" y="335.5" width="190" height="80" as="geometry" />
        </mxCell>
        <mxCell id="Ey4R-V_PaF4X1ZqoevEX-141" value="" style="group" vertex="1" connectable="0" parent="1">
          <mxGeometry x="937" y="170" width="210" height="99.99999999999997" as="geometry" />
        </mxCell>
        <mxCell id="123" value="" style="fillColor=#AE4132;strokeColor=none;opacity=30;" parent="Ey4R-V_PaF4X1ZqoevEX-141" vertex="1">
          <mxGeometry width="210" height="99.99999999999994" as="geometry" />
        </mxCell>
        <mxCell id="2" value="ian.rackson.com" style="rounded=1;fillColor=#23445D;gradientColor=none;strokeColor=none;fontColor=#FFFFFF;fontStyle=1;fontFamily=Tahoma;fontSize=14" parent="Ey4R-V_PaF4X1ZqoevEX-141" vertex="1">
          <mxGeometry x="10" y="7.749999999999972" width="190" height="84.5" as="geometry" />
        </mxCell>
        <mxCell id="Ey4R-V_PaF4X1ZqoevEX-226" style="edgeStyle=elbowEdgeStyle;rounded=0;orthogonalLoop=1;jettySize=auto;html=1;entryX=0.5;entryY=0;entryDx=0;entryDy=0;" edge="1" parent="1" target="4">
          <mxGeometry relative="1" as="geometry">
            <mxPoint x="1670" y="540" as="sourcePoint" />
            <Array as="points">
              <mxPoint x="1670" y="450" />
            </Array>
          </mxGeometry>
        </mxCell>
        <mxCell id="Ey4R-V_PaF4X1ZqoevEX-154" value="/download" style="rounded=1;fillColor=#e1d5e7;strokeColor=#9673a6;fontStyle=1;fontFamily=Tahoma;fontSize=14" vertex="1" parent="1">
          <mxGeometry x="1480" y="520" width="190" height="40" as="geometry" />
        </mxCell>
        <mxCell id="Ey4R-V_PaF4X1ZqoevEX-217" style="edgeStyle=none;rounded=0;orthogonalLoop=1;jettySize=auto;html=1;exitX=0;exitY=0.5;exitDx=0;exitDy=0;entryX=0.5;entryY=0;entryDx=0;entryDy=0;" edge="1" parent="1" source="Ey4R-V_PaF4X1ZqoevEX-181" target="Ey4R-V_PaF4X1ZqoevEX-216">
          <mxGeometry relative="1" as="geometry" />
        </mxCell>
        <mxCell id="Ey4R-V_PaF4X1ZqoevEX-181" value="/edit" style="rounded=1;fillColor=#fff2cc;strokeColor=#d6b656;fontStyle=1;fontFamily=Tahoma;fontSize=14" vertex="1" parent="1">
          <mxGeometry x="450" y="520" width="190" height="40" as="geometry" />
        </mxCell>
        <mxCell id="Ey4R-V_PaF4X1ZqoevEX-205" style="edgeStyle=elbowEdgeStyle;rounded=0;orthogonalLoop=1;jettySize=auto;elbow=vertical;html=1;entryX=0.5;entryY=0;entryDx=0;entryDy=0;" edge="1" parent="1" source="2" target="10">
          <mxGeometry relative="1" as="geometry" />
        </mxCell>
        <mxCell id="Ey4R-V_PaF4X1ZqoevEX-229" style="edgeStyle=none;rounded=0;orthogonalLoop=1;jettySize=auto;html=1;entryX=0.5;entryY=1;entryDx=0;entryDy=0;exitX=1;exitY=0.5;exitDx=0;exitDy=0;" edge="1" parent="1" source="Ey4R-V_PaF4X1ZqoevEX-215" target="Ey4R-V_PaF4X1ZqoevEX-227">
          <mxGeometry relative="1" as="geometry" />
        </mxCell>
        <mxCell id="Ey4R-V_PaF4X1ZqoevEX-215" value="/login" style="rounded=1;fillColor=#fff2cc;strokeColor=#d6b656;fontStyle=1;fontFamily=Tahoma;fontSize=14" vertex="1" parent="1">
          <mxGeometry x="1180" y="180" width="190" height="30" as="geometry" />
        </mxCell>
        <mxCell id="Ey4R-V_PaF4X1ZqoevEX-218" style="edgeStyle=elbowEdgeStyle;rounded=0;orthogonalLoop=1;jettySize=auto;html=1;entryX=0.5;entryY=0;entryDx=0;entryDy=0;" edge="1" parent="1" source="Ey4R-V_PaF4X1ZqoevEX-216" target="12">
          <mxGeometry relative="1" as="geometry" />
        </mxCell>
        <mxCell id="Ey4R-V_PaF4X1ZqoevEX-216" value="submit" style="rounded=1;fillColor=#d5e8d4;strokeColor=#82b366;fontStyle=1;fontFamily=Tahoma;fontSize=14;rotation=90;" vertex="1" parent="1">
          <mxGeometry x="340" y="460" width="80" height="30" as="geometry" />
        </mxCell>
        <mxCell id="Ey4R-V_PaF4X1ZqoevEX-233" style="edgeStyle=elbowEdgeStyle;rounded=0;orthogonalLoop=1;jettySize=auto;html=1;entryX=0.5;entryY=0;entryDx=0;entryDy=0;" edge="1" parent="1" source="Ey4R-V_PaF4X1ZqoevEX-227" target="2">
          <mxGeometry relative="1" as="geometry">
            <Array as="points">
              <mxPoint x="1170" y="155" />
              <mxPoint x="1140" y="155" />
              <mxPoint x="1160" y="155" />
            </Array>
          </mxGeometry>
        </mxCell>
        <mxCell id="Ey4R-V_PaF4X1ZqoevEX-227" value="submit" style="rounded=1;fillColor=#d5e8d4;strokeColor=#82b366;fontStyle=1;fontFamily=Tahoma;fontSize=14;rotation=90;" vertex="1" parent="1">
          <mxGeometry x="1370" y="140" width="80" height="30" as="geometry" />
        </mxCell>
        <mxCell id="Ey4R-V_PaF4X1ZqoevEX-234" style="edgeStyle=elbowEdgeStyle;rounded=0;orthogonalLoop=1;jettySize=auto;html=1;" edge="1" parent="1" source="Ey4R-V_PaF4X1ZqoevEX-231">
          <mxGeometry relative="1" as="geometry">
            <mxPoint x="1040" y="180" as="targetPoint" />
            <Array as="points">
              <mxPoint x="1170" y="210" />
            </Array>
          </mxGeometry>
        </mxCell>
        <mxCell id="Ey4R-V_PaF4X1ZqoevEX-231" value="/logout" style="rounded=1;fillColor=#e1d5e7;strokeColor=#9673a6;fontStyle=1;fontFamily=Tahoma;fontSize=14" vertex="1" parent="1">
          <mxGeometry x="1180" y="230" width="190" height="30" as="geometry" />
        </mxCell>
        <mxCell id="Ey4R-V_PaF4X1ZqoevEX-236" style="edgeStyle=elbowEdgeStyle;rounded=0;orthogonalLoop=1;jettySize=auto;elbow=vertical;html=1;entryX=0.5;entryY=0;entryDx=0;entryDy=0;" edge="1" parent="1" source="Ey4R-V_PaF4X1ZqoevEX-237" target="Ey4R-V_PaF4X1ZqoevEX-239">
          <mxGeometry relative="1" as="geometry" />
        </mxCell>
        <mxCell id="Ey4R-V_PaF4X1ZqoevEX-237" value="" style="rounded=1;fillColor=#23445D;gradientColor=none;strokeColor=none;fontColor=#FFFFFF;fontStyle=1;fontFamily=Tahoma;fontSize=14" vertex="1" parent="1">
          <mxGeometry x="1860" y="335.5" width="190" height="80" as="geometry" />
        </mxCell>
        <mxCell id="Ey4R-V_PaF4X1ZqoevEX-238" style="edgeStyle=none;rounded=0;orthogonalLoop=1;jettySize=auto;html=1;exitX=0;exitY=0.5;exitDx=0;exitDy=0;entryX=0.5;entryY=0;entryDx=0;entryDy=0;" edge="1" parent="1" source="Ey4R-V_PaF4X1ZqoevEX-239">
          <mxGeometry relative="1" as="geometry">
            <mxPoint x="1808" y="482.75" as="targetPoint" />
          </mxGeometry>
        </mxCell>
        <mxCell id="Ey4R-V_PaF4X1ZqoevEX-239" value="/edit" style="rounded=1;fillColor=#fff2cc;strokeColor=#d6b656;fontStyle=1;fontFamily=Tahoma;fontSize=14" vertex="1" parent="1">
          <mxGeometry x="1860" y="517.75" width="190" height="40" as="geometry" />
        </mxCell>
        <mxCell id="Ey4R-V_PaF4X1ZqoevEX-240" value="submit" style="rounded=1;fillColor=#d5e8d4;strokeColor=#82b366;fontStyle=1;fontFamily=Tahoma;fontSize=14;rotation=90;" vertex="1" parent="1">
          <mxGeometry x="1754" y="462.25" width="80" height="30" as="geometry" />
        </mxCell>
        <mxCell id="Ey4R-V_PaF4X1ZqoevEX-244" style="edgeStyle=elbowEdgeStyle;rounded=0;orthogonalLoop=1;jettySize=auto;elbow=vertical;html=1;" edge="1" parent="1" source="2" target="Ey4R-V_PaF4X1ZqoevEX-237">
          <mxGeometry relative="1" as="geometry" />
        </mxCell>
        <mxCell id="Ey4R-V_PaF4X1ZqoevEX-249" value="/resume" style="swimlane;fontStyle=1;childLayout=stackLayout;horizontal=1;startSize=26;fillColor=none;horizontalStack=0;resizeParent=1;resizeParentMax=0;resizeLast=0;collapsible=1;marginBottom=0;shadow=0;labelBackgroundColor=none;align=center;fontColor=#FFFFFF;fontFamily=Tahoma;fontSize=14;labelBorderColor=none;" vertex="1" collapsed="1" parent="1">
          <mxGeometry x="1407" y="362.5" width="100" height="26" as="geometry">
            <mxRectangle x="1407" y="362.5" width="140" height="144" as="alternateBounds" />
          </mxGeometry>
        </mxCell>
        <mxCell id="Ey4R-V_PaF4X1ZqoevEX-250" value="Summary" style="text;strokeColor=none;fillColor=none;align=left;verticalAlign=top;spacingLeft=4;spacingRight=4;overflow=hidden;rotatable=0;points=[[0,0.5],[1,0.5]];portConstraint=eastwest;labelBackgroundColor=none;labelBorderColor=#000000;" vertex="1" parent="Ey4R-V_PaF4X1ZqoevEX-249">
          <mxGeometry y="26" width="100" height="26" as="geometry" />
        </mxCell>
        <mxCell id="Ey4R-V_PaF4X1ZqoevEX-251" value="Skills" style="text;strokeColor=none;fillColor=none;align=left;verticalAlign=top;spacingLeft=4;spacingRight=4;overflow=hidden;rotatable=0;points=[[0,0.5],[1,0.5]];portConstraint=eastwest;labelBackgroundColor=none;labelBorderColor=#000000;" vertex="1" parent="Ey4R-V_PaF4X1ZqoevEX-249">
          <mxGeometry y="52" width="100" height="26" as="geometry" />
        </mxCell>
        <mxCell id="Ey4R-V_PaF4X1ZqoevEX-252" value="Employment" style="text;strokeColor=none;fillColor=none;align=left;verticalAlign=top;spacingLeft=4;spacingRight=4;overflow=hidden;rotatable=0;points=[[0,0.5],[1,0.5]];portConstraint=eastwest;labelBackgroundColor=none;labelBorderColor=#000000;" vertex="1" parent="Ey4R-V_PaF4X1ZqoevEX-249">
          <mxGeometry y="78" width="100" height="22" as="geometry" />
        </mxCell>
        <mxCell id="Ey4R-V_PaF4X1ZqoevEX-257" value="Education" style="text;strokeColor=none;fillColor=none;align=left;verticalAlign=top;spacingLeft=4;spacingRight=4;overflow=hidden;rotatable=0;points=[[0,0.5],[1,0.5]];portConstraint=eastwest;labelBackgroundColor=none;labelBorderColor=#000000;" vertex="1" parent="Ey4R-V_PaF4X1ZqoevEX-249">
          <mxGeometry y="100" width="100" height="22" as="geometry" />
        </mxCell>
        <mxCell id="Ey4R-V_PaF4X1ZqoevEX-261" value="B-Side (collapsed)" style="text;strokeColor=none;fillColor=none;align=left;verticalAlign=top;spacingLeft=4;spacingRight=4;overflow=hidden;rotatable=0;points=[[0,0.5],[1,0.5]];portConstraint=eastwest;labelBackgroundColor=none;labelBorderColor=#000000;" vertex="1" parent="Ey4R-V_PaF4X1ZqoevEX-249">
          <mxGeometry y="122" width="100" height="22" as="geometry" />
        </mxCell>
        <mxCell id="Ey4R-V_PaF4X1ZqoevEX-262" value="/metrics" style="swimlane;fontStyle=1;childLayout=stackLayout;horizontal=1;startSize=26;fillColor=none;horizontalStack=0;resizeParent=1;resizeParentMax=0;resizeLast=0;collapsible=1;marginBottom=0;shadow=0;labelBackgroundColor=none;align=center;fontColor=#FFFFFF;fontFamily=Tahoma;fontSize=14;labelBorderColor=none;" vertex="1" collapsed="1" parent="1">
          <mxGeometry x="1905" y="362.5" width="100" height="26" as="geometry">
            <mxRectangle x="1905" y="362.5" width="140" height="78" as="alternateBounds" />
          </mxGeometry>
        </mxCell>
        <mxCell id="Ey4R-V_PaF4X1ZqoevEX-263" value="Github Graph embed" style="text;strokeColor=none;fillColor=none;align=left;verticalAlign=top;spacingLeft=4;spacingRight=4;overflow=hidden;rotatable=0;points=[[0,0.5],[1,0.5]];portConstraint=eastwest;labelBackgroundColor=none;labelBorderColor=#000000;" vertex="1" parent="Ey4R-V_PaF4X1ZqoevEX-262">
          <mxGeometry y="26" width="100" height="26" as="geometry" />
        </mxCell>
        <mxCell id="Ey4R-V_PaF4X1ZqoevEX-264" value="Wakatime Graph embed" style="text;strokeColor=none;fillColor=none;align=left;verticalAlign=top;spacingLeft=4;spacingRight=4;overflow=hidden;rotatable=0;points=[[0,0.5],[1,0.5]];portConstraint=eastwest;labelBackgroundColor=none;labelBorderColor=#000000;" vertex="1" parent="Ey4R-V_PaF4X1ZqoevEX-262">
          <mxGeometry y="52" width="100" height="26" as="geometry" />
        </mxCell>
        <mxCell id="Ey4R-V_PaF4X1ZqoevEX-268" value="/contact" style="swimlane;fontStyle=1;childLayout=stackLayout;horizontal=1;startSize=26;fillColor=none;horizontalStack=0;resizeParent=1;resizeParentMax=0;resizeLast=0;collapsible=1;marginBottom=0;shadow=0;labelBackgroundColor=none;align=center;fontColor=#FFFFFF;fontFamily=Tahoma;fontSize=14;labelBorderColor=none;" vertex="1" collapsed="1" parent="1">
          <mxGeometry x="607" y="362.5" width="100" height="26" as="geometry">
            <mxRectangle x="607" y="362.5" width="140" height="162" as="alternateBounds" />
          </mxGeometry>
        </mxCell>
        <mxCell id="Ey4R-V_PaF4X1ZqoevEX-269" value="Connect with me on..." style="text;strokeColor=none;fillColor=none;align=left;verticalAlign=top;spacingLeft=4;spacingRight=4;overflow=hidden;rotatable=0;points=[[0,0.5],[1,0.5]];portConstraint=eastwest;labelBackgroundColor=none;labelBorderColor=#000000;" vertex="1" parent="Ey4R-V_PaF4X1ZqoevEX-268">
          <mxGeometry y="26" width="100" height="26" as="geometry" />
        </mxCell>
        <mxCell id="Ey4R-V_PaF4X1ZqoevEX-270" value="Send mail to..." style="text;strokeColor=none;fillColor=none;align=left;verticalAlign=top;spacingLeft=4;spacingRight=4;overflow=hidden;rotatable=0;points=[[0,0.5],[1,0.5]];portConstraint=eastwest;labelBackgroundColor=none;labelBorderColor=#000000;" vertex="1" parent="Ey4R-V_PaF4X1ZqoevEX-268">
          <mxGeometry y="52" width="100" height="26" as="geometry" />
        </mxCell>
        <mxCell id="Ey4R-V_PaF4X1ZqoevEX-271" value="Phone me at..." style="text;strokeColor=none;fillColor=none;align=left;verticalAlign=top;spacingLeft=4;spacingRight=4;overflow=hidden;rotatable=0;points=[[0,0.5],[1,0.5]];portConstraint=eastwest;labelBackgroundColor=none;labelBorderColor=#000000;whiteSpace=wrap;" vertex="1" parent="Ey4R-V_PaF4X1ZqoevEX-268">
          <mxGeometry y="78" width="100" height="22" as="geometry" />
        </mxCell>
        <mxCell id="Ey4R-V_PaF4X1ZqoevEX-272" value="Email me at... (business, personal)" style="text;strokeColor=none;fillColor=none;align=left;verticalAlign=top;spacingLeft=4;spacingRight=4;overflow=hidden;rotatable=0;points=[[0,0.5],[1,0.5]];portConstraint=eastwest;labelBackgroundColor=none;labelBorderColor=#000000;whiteSpace=wrap;" vertex="1" parent="Ey4R-V_PaF4X1ZqoevEX-268">
          <mxGeometry y="100" width="100" height="40" as="geometry" />
        </mxCell>
        <mxCell id="Ey4R-V_PaF4X1ZqoevEX-273" value="Watch me on..." style="text;strokeColor=none;fillColor=none;align=left;verticalAlign=top;spacingLeft=4;spacingRight=4;overflow=hidden;rotatable=0;points=[[0,0.5],[1,0.5]];portConstraint=eastwest;labelBackgroundColor=none;labelBorderColor=#000000;" vertex="1" parent="Ey4R-V_PaF4X1ZqoevEX-268">
          <mxGeometry y="140" width="100" height="22" as="geometry" />
        </mxCell>
        <mxCell id="Ey4R-V_PaF4X1ZqoevEX-274" style="edgeStyle=elbowEdgeStyle;shape=link;rounded=0;orthogonalLoop=1;jettySize=auto;html=1;exitX=1;exitY=0.5;exitDx=0;exitDy=0;entryX=0;entryY=0.5;entryDx=0;entryDy=0;width=23;" edge="1" parent="1" source="13" target="Ey4R-V_PaF4X1ZqoevEX-268">
          <mxGeometry relative="1" as="geometry">
            <mxPoint x="297" y="375.5" as="sourcePoint" />
            <mxPoint x="2260" y="375.5" as="targetPoint" />
          </mxGeometry>
        </mxCell>
        <mxCell id="Ey4R-V_PaF4X1ZqoevEX-289" value="" style="group" vertex="1" connectable="0" parent="1">
          <mxGeometry x="700" y="560" width="78" height="230" as="geometry" />
        </mxCell>
        <mxCell id="Ey4R-V_PaF4X1ZqoevEX-202" value="" style="group" vertex="1" connectable="0" parent="Ey4R-V_PaF4X1ZqoevEX-289">
          <mxGeometry width="78" height="190" as="geometry" />
        </mxCell>
        <mxCell id="Ey4R-V_PaF4X1ZqoevEX-197" value="Calendly" style="shape=ext;double=1;rounded=0;whiteSpace=wrap;html=1;shadow=1;" vertex="1" parent="Ey4R-V_PaF4X1ZqoevEX-202">
          <mxGeometry y="160" width="78" height="30" as="geometry" />
        </mxCell>
        <mxCell id="Ey4R-V_PaF4X1ZqoevEX-168" value="Github" style="shape=ext;double=1;rounded=0;whiteSpace=wrap;html=1;shadow=1;" vertex="1" parent="Ey4R-V_PaF4X1ZqoevEX-202">
          <mxGeometry width="78" height="30" as="geometry" />
        </mxCell>
        <mxCell id="Ey4R-V_PaF4X1ZqoevEX-169" value="Slack" style="shape=ext;double=1;rounded=0;whiteSpace=wrap;html=1;shadow=1;" vertex="1" parent="Ey4R-V_PaF4X1ZqoevEX-202">
          <mxGeometry y="40" width="78" height="30" as="geometry" />
        </mxCell>
        <mxCell id="Ey4R-V_PaF4X1ZqoevEX-170" value="Youtube" style="shape=ext;double=1;rounded=0;whiteSpace=wrap;html=1;shadow=1;" vertex="1" parent="Ey4R-V_PaF4X1ZqoevEX-202">
          <mxGeometry y="80" width="78" height="30" as="geometry" />
        </mxCell>
        <mxCell id="Ey4R-V_PaF4X1ZqoevEX-171" value="LinkedIn" style="shape=ext;double=1;rounded=0;whiteSpace=wrap;html=1;shadow=1;" vertex="1" parent="Ey4R-V_PaF4X1ZqoevEX-202">
          <mxGeometry y="120" width="78" height="30" as="geometry" />
        </mxCell>
        <mxCell id="Ey4R-V_PaF4X1ZqoevEX-288" value="Twitch" style="shape=ext;double=1;rounded=0;whiteSpace=wrap;html=1;shadow=1;" vertex="1" parent="Ey4R-V_PaF4X1ZqoevEX-289">
          <mxGeometry y="200" width="78" height="30" as="geometry" />
        </mxCell>
        <mxCell id="Ey4R-V_PaF4X1ZqoevEX-295" value="/about" style="swimlane;fontStyle=1;childLayout=stackLayout;horizontal=1;startSize=26;fillColor=none;horizontalStack=0;resizeParent=1;resizeParentMax=0;resizeLast=0;collapsible=1;marginBottom=0;shadow=0;labelBackgroundColor=none;align=center;fontColor=#FFFFFF;fontFamily=Tahoma;fontSize=14;labelBorderColor=none;" vertex="1" collapsed="1" parent="1">
          <mxGeometry x="992" y="362.5" width="100" height="26" as="geometry">
            <mxRectangle x="992" y="362.5" width="142" height="188" as="alternateBounds" />
          </mxGeometry>
        </mxCell>
        <mxCell id="Ey4R-V_PaF4X1ZqoevEX-296" value="TLDR" style="text;strokeColor=none;fillColor=none;align=left;verticalAlign=top;spacingLeft=4;spacingRight=4;overflow=hidden;rotatable=0;points=[[0,0.5],[1,0.5]];portConstraint=eastwest;labelBackgroundColor=none;labelBorderColor=#000000;" vertex="1" parent="Ey4R-V_PaF4X1ZqoevEX-295">
          <mxGeometry y="26" width="100" height="26" as="geometry" />
        </mxCell>
        <mxCell id="Ey4R-V_PaF4X1ZqoevEX-297" value="TMI" style="text;strokeColor=none;fillColor=none;align=left;verticalAlign=top;spacingLeft=4;spacingRight=4;overflow=hidden;rotatable=0;points=[[0,0.5],[1,0.5]];portConstraint=eastwest;labelBackgroundColor=none;labelBorderColor=#000000;" vertex="1" parent="Ey4R-V_PaF4X1ZqoevEX-295">
          <mxGeometry y="52" width="100" height="26" as="geometry" />
        </mxCell>
        <mxCell id="Ey4R-V_PaF4X1ZqoevEX-298" value="Setup" style="text;strokeColor=none;fillColor=none;align=left;verticalAlign=top;spacingLeft=4;spacingRight=4;overflow=hidden;rotatable=0;points=[[0,0.5],[1,0.5]];portConstraint=eastwest;labelBackgroundColor=none;labelBorderColor=#000000;" vertex="1" parent="Ey4R-V_PaF4X1ZqoevEX-295">
          <mxGeometry y="78" width="100" height="22" as="geometry" />
        </mxCell>
        <mxCell id="Ey4R-V_PaF4X1ZqoevEX-299" value="Goals" style="text;strokeColor=none;fillColor=none;align=left;verticalAlign=top;spacingLeft=4;spacingRight=4;overflow=hidden;rotatable=0;points=[[0,0.5],[1,0.5]];portConstraint=eastwest;labelBackgroundColor=none;labelBorderColor=#000000;" vertex="1" parent="Ey4R-V_PaF4X1ZqoevEX-295">
          <mxGeometry y="100" width="100" height="22" as="geometry" />
        </mxCell>
        <mxCell id="Ey4R-V_PaF4X1ZqoevEX-300" value="Values" style="text;strokeColor=none;fillColor=none;align=left;verticalAlign=top;spacingLeft=4;spacingRight=4;overflow=hidden;rotatable=0;points=[[0,0.5],[1,0.5]];portConstraint=eastwest;labelBackgroundColor=none;labelBorderColor=#000000;" vertex="1" parent="Ey4R-V_PaF4X1ZqoevEX-295">
          <mxGeometry y="122" width="100" height="22" as="geometry" />
        </mxCell>
        <mxCell id="Ey4R-V_PaF4X1ZqoevEX-301" value="Inspirations" style="text;strokeColor=none;fillColor=none;align=left;verticalAlign=top;spacingLeft=4;spacingRight=4;overflow=hidden;rotatable=0;points=[[0,0.5],[1,0.5]];portConstraint=eastwest;labelBackgroundColor=none;labelBorderColor=#000000;" vertex="1" parent="Ey4R-V_PaF4X1ZqoevEX-295">
          <mxGeometry y="144" width="100" height="22" as="geometry" />
        </mxCell>
        <mxCell id="Ey4R-V_PaF4X1ZqoevEX-302" value="Gratitudes" style="text;strokeColor=none;fillColor=none;align=left;verticalAlign=top;spacingLeft=4;spacingRight=4;overflow=hidden;rotatable=0;points=[[0,0.5],[1,0.5]];portConstraint=eastwest;labelBackgroundColor=none;labelBorderColor=#000000;" vertex="1" parent="Ey4R-V_PaF4X1ZqoevEX-295">
          <mxGeometry y="166" width="100" height="22" as="geometry" />
        </mxCell>
        <mxCell id="Ey4R-V_PaF4X1ZqoevEX-319" style="edgeStyle=orthogonalEdgeStyle;rounded=0;orthogonalLoop=1;jettySize=auto;html=1;fontFamily=Tahoma;fontSize=11;fontColor=#FF3333;" edge="1" parent="1" source="Ey4R-V_PaF4X1ZqoevEX-313" target="Ey4R-V_PaF4X1ZqoevEX-317">
          <mxGeometry relative="1" as="geometry" />
        </mxCell>
        <mxCell id="Ey4R-V_PaF4X1ZqoevEX-313" value="/new" style="rounded=1;fillColor=#fff2cc;strokeColor=#d6b656;fontStyle=1;fontFamily=Tahoma;fontSize=14" vertex="1" parent="1">
          <mxGeometry x="910" y="600" width="93" height="40" as="geometry" />
        </mxCell>
        <mxCell id="Ey4R-V_PaF4X1ZqoevEX-314" value="" style="rounded=1;fillColor=#fff2cc;strokeColor=#d6b656;fontStyle=1;fontFamily=Tahoma;fontSize=14" vertex="1" parent="1">
          <mxGeometry x="1300" y="670" width="97" height="40" as="geometry" />
        </mxCell>
        <mxCell id="Ey4R-V_PaF4X1ZqoevEX-316" value="" style="group" vertex="1" connectable="0" parent="1">
          <mxGeometry x="947" y="480" width="190" height="107" as="geometry" />
        </mxCell>
        <mxCell id="Ey4R-V_PaF4X1ZqoevEX-166" value="" style="rounded=1;fillColor=#fff2cc;strokeColor=#d6b656;fontStyle=1;fontFamily=Tahoma;fontSize=14" vertex="1" parent="Ey4R-V_PaF4X1ZqoevEX-316">
          <mxGeometry width="190" height="40" as="geometry" />
        </mxCell>
        <mxCell id="Ey4R-V_PaF4X1ZqoevEX-303" value="logged in?" style="swimlane;fontStyle=1;childLayout=stackLayout;horizontal=1;startSize=26;fillColor=none;horizontalStack=0;resizeParent=1;resizeParentMax=0;resizeLast=0;collapsible=1;marginBottom=0;shadow=0;labelBackgroundColor=none;align=center;fontFamily=Tahoma;fontSize=14;labelBorderColor=none;fontColor=#FF3333;" vertex="1" parent="Ey4R-V_PaF4X1ZqoevEX-316">
          <mxGeometry x="37.5" y="7" width="152.5" height="78" as="geometry">
            <mxRectangle x="37.5" y="7" width="115" height="26" as="alternateBounds" />
          </mxGeometry>
        </mxCell>
        <mxCell id="Ey4R-V_PaF4X1ZqoevEX-304" value="Add new section button" style="text;strokeColor=none;fillColor=none;align=left;verticalAlign=top;spacingLeft=4;spacingRight=4;overflow=hidden;rotatable=0;points=[[0,0.5],[1,0.5]];portConstraint=eastwest;labelBackgroundColor=none;labelBorderColor=#000000;" vertex="1" parent="Ey4R-V_PaF4X1ZqoevEX-303">
          <mxGeometry y="26" width="152.5" height="26" as="geometry" />
        </mxCell>
        <mxCell id="Ey4R-V_PaF4X1ZqoevEX-305" value="Modify button for each" style="text;strokeColor=none;fillColor=none;align=left;verticalAlign=top;spacingLeft=4;spacingRight=4;overflow=hidden;rotatable=0;points=[[0,0.5],[1,0.5]];portConstraint=eastwest;labelBackgroundColor=none;labelBorderColor=#000000;" vertex="1" parent="Ey4R-V_PaF4X1ZqoevEX-303">
          <mxGeometry y="52" width="152.5" height="26" as="geometry" />
        </mxCell>
        <mxCell id="Ey4R-V_PaF4X1ZqoevEX-321" style="edgeStyle=orthogonalEdgeStyle;rounded=0;orthogonalLoop=1;jettySize=auto;html=1;entryX=0;entryY=0.5;entryDx=0;entryDy=0;fontFamily=Tahoma;fontSize=11;fontColor=#FF3333;" edge="1" parent="1" source="Ey4R-V_PaF4X1ZqoevEX-317" target="Ey4R-V_PaF4X1ZqoevEX-166">
          <mxGeometry relative="1" as="geometry">
            <Array as="points">
              <mxPoint x="877" y="500" />
            </Array>
          </mxGeometry>
        </mxCell>
        <mxCell id="Ey4R-V_PaF4X1ZqoevEX-317" value="submit" style="rounded=1;fillColor=#d5e8d4;strokeColor=#82b366;fontStyle=1;fontFamily=Tahoma;fontSize=14;rotation=90;" vertex="1" parent="1">
          <mxGeometry x="837" y="530" width="80" height="30" as="geometry" />
        </mxCell>
        <mxCell id="Ey4R-V_PaF4X1ZqoevEX-322" value="/:id" style="rounded=1;fillColor=#fff2cc;strokeColor=#d6b656;fontStyle=1;fontFamily=Tahoma;fontSize=14" vertex="1" parent="1">
          <mxGeometry x="1080" y="600" width="93" height="40" as="geometry" />
        </mxCell>
      </root>
    </mxGraphModel>
  </diagram>
</mxfile>
